<?xml version="1.0" encoding="utf-8"?>
<!-- Generator: Adobe Illustrator 21.0.1, SVG Export Plug-In . SVG Version: 6.00 Build 0)  -->
<svg version="1.1" id="Layer_1" xmlns="http://www.w3.org/2000/svg" xmlns:xlink="http://www.w3.org/1999/xlink" x="0px" y="0px"
	 viewBox="0 0 420.2 165.7" style="enable-background:new 0 0 420.2 165.7;" xml:space="preserve">
<style type="text/css">
	.st0{fill:none;stroke:#3A3A3A;stroke-width:6.5293;}
	.st1{fill:none;stroke:#3A3A3A;stroke-width:6.237;stroke-linecap:square;}
	.st2{fill:#E06526;}
	.st3{fill:#3A3A3A;}
</style>
<line class="st0" x1="21.7" y1="39.3" x2="21.7" y2="120.7"/>
<polyline class="st1" points="5.5,33 103.4,5.4 192.7,33 "/>
<g>
	<path class="st2" d="M137.1,101.4c-2.8,4.5-7.7,6.8-14.7,6.8c-2.7,0-5.3-0.3-7.6-1c-2.3-0.7-4.4-1.7-6.2-3c-1.8-1.3-3.3-3-4.3-5.2
		s-1.5-4.6-1.5-7.4V55.3c0-2.2,0.3-4.1,1-5.9c0.6-1.7,1.5-3.2,2.5-4.4c1-1.2,2.4-2.2,3.9-3c1.6-0.8,3.2-1.5,4.8-2
		c1.6-0.5,3.4-0.8,5.5-1.1c2.1-0.3,3.9-0.5,5.6-0.5s3.5-0.1,5.6-0.1c1.8,0,3.5,0,5.1,0.1c1.6,0.1,3.4,0.3,5.4,0.6
		c2,0.3,3.8,0.7,5.5,1.2c1.6,0.5,3.3,1.2,4.9,2c1.6,0.9,3,1.9,4.1,3c1.1,1.2,2,2.6,2.7,4.3c0.7,1.7,1,3.6,1,5.8v10.4h-25.3V49.9
		h-7.2v46.9h7.2V84.1h-3.6v-9.6h28.8v32.1h-20.3L137.1,101.4z"/>
</g>
<g>
	<path class="st2" d="M82.3,73.5l0,0.3c5.6,0.6,9.6,2.2,12,4.8c2.4,2.6,3.7,5.8,3.7,9.8v18.3H72.7V79.5h-7.2v27.1H40.2V40h38.1
		c3.1,0,5.8,0.3,8.1,0.8c2.2,0.5,4.2,1.5,5.9,2.7c1.7,1.3,2.9,3,3.8,5.2c0.8,2.2,1.2,4.9,1.2,8.1c0,2-0.1,3.7-0.4,5.2
		c-0.3,1.5-0.7,2.9-1.4,4.3s-1.5,2.5-2.7,3.4c-1.1,0.9-2.6,1.7-4.3,2.4C86.8,72.8,84.7,73.3,82.3,73.5z M65.4,69.8h7.2V49.9h-7.2
		V69.8z"/>
</g>
<path class="st2" d="M188.4,109.8v0.2c1.1,0.1,2.1,0.4,2.8,0.8c0.8,0.4,1.4,0.9,1.7,1.6s0.7,1.3,0.8,2c0.2,0.7,0.2,1.4,0.2,2.3
	c0,1.5-0.1,2.8-0.4,3.8c-0.3,1-0.8,1.7-1.5,2.3c-0.7,0.6-1.5,1-2.5,1.2c-1,0.2-2.2,0.3-3.7,0.3h-12.6V97.9H186c0.6,0,1.2,0,1.6,0.1
	s1,0.1,1.5,0.2c0.5,0.1,1,0.3,1.4,0.4c0.4,0.2,0.8,0.4,1.2,0.7s0.7,0.7,0.9,1.1s0.4,1,0.6,1.6c0.1,0.6,0.2,1.3,0.2,2.1
	c0,1.8-0.4,3.1-1.1,4C191.6,109,190.3,109.6,188.4,109.8z M182.4,108.5h2.6v-6.7h-2.6V108.5z M182.4,120.4h2.6v-8.8h-2.6V120.4z"/>
<path class="st2" d="M204.9,120.4h2.6V97.9h9v20.2c0,0.9-0.1,1.6-0.4,2.3c-0.2,0.7-0.5,1.3-0.9,1.7c-0.4,0.5-0.8,0.9-1.4,1.2
	c-0.6,0.3-1.1,0.6-1.7,0.8c-0.6,0.2-1.2,0.3-2,0.4c-0.7,0.1-1.4,0.2-2,0.2c-0.6,0-1.3,0-2,0c-0.7,0-1.3,0-1.9,0s-1.2-0.1-2-0.2
	c-0.7-0.1-1.4-0.3-2-0.4c-0.6-0.2-1.1-0.5-1.7-0.8c-0.6-0.3-1.1-0.7-1.4-1.2c-0.4-0.5-0.7-1-0.9-1.7c-0.2-0.7-0.4-1.5-0.4-2.3V97.9
	h9V120.4z"/>
<path class="st2" d="M228.2,97.9v26.4h-9V97.9H228.2z"/>
<path class="st2" d="M231.1,124.2V97.9h9v22.4h5.1v4H231.1z"/>
<path class="st2" d="M267.7,104.3v13.4c0,0.7-0.1,1.4-0.2,2c-0.1,0.6-0.3,1.1-0.6,1.6c-0.3,0.4-0.6,0.8-0.9,1.1
	c-0.3,0.3-0.7,0.6-1.2,0.8c-0.5,0.2-0.9,0.4-1.4,0.5c-0.5,0.1-1,0.2-1.6,0.3c-0.6,0.1-1.2,0.1-1.7,0.1c-0.5,0-1.1,0-1.7,0h-11.3
	V97.9h11.3c0.8,0,1.4,0,2,0c0.6,0,1.2,0.1,1.9,0.2c0.7,0.1,1.3,0.3,1.8,0.4c0.5,0.2,1,0.4,1.5,0.8c0.5,0.3,0.9,0.7,1.2,1.2
	c0.3,0.4,0.5,1,0.7,1.6C267.6,102.8,267.7,103.5,267.7,104.3z M256.1,120.4h2.6v-18.6h-2.6V120.4z"/>
<path class="st2" d="M279.3,97.9v26.4h-9V97.9H279.3z"/>
<path class="st2" d="M294.9,124.2l-6-11.8v11.8h-6.7V97.9h7.7l6.4,12.6V97.9h6.6v26.4H294.9z"/>
<path class="st2" d="M317.8,122.2c-1,1.8-2.7,2.7-5.2,2.7c-1,0-1.9-0.1-2.7-0.4c-0.8-0.3-1.6-0.7-2.2-1.2c-0.7-0.5-1.2-1.2-1.5-2.1
	c-0.4-0.9-0.6-1.8-0.6-2.9V104c0-0.9,0.1-1.6,0.3-2.3c0.2-0.7,0.5-1.3,0.9-1.7c0.4-0.5,0.8-0.9,1.4-1.2s1.1-0.6,1.7-0.8
	c0.6-0.2,1.2-0.3,2-0.4c0.7-0.1,1.4-0.2,2-0.2c0.6,0,1.3,0,2,0c0.6,0,1.2,0,1.8,0.1s1.2,0.1,1.9,0.2s1.4,0.3,2,0.5
	c0.6,0.2,1.2,0.5,1.8,0.8c0.6,0.3,1.1,0.7,1.5,1.2s0.7,1,1,1.7s0.4,1.4,0.4,2.3v4.1h-9v-6.3h-2.6v18.6h2.6v-5h-1.3v-3.8h10.3v12.7
	h-7.3L317.8,122.2z"/>
<path class="st2" d="M183.8,137.4h-2.6V156h2.6v-6.3h9v4c0,0.9-0.1,1.6-0.3,2.3c-0.2,0.7-0.5,1.3-0.9,1.7s-0.8,0.9-1.4,1.2
	c-0.6,0.3-1.1,0.6-1.7,0.8c-0.6,0.2-1.2,0.3-1.9,0.4c-0.7,0.1-1.4,0.2-2,0.2c-0.6,0-1.3,0-2,0c-0.7,0-1.3,0-1.9,0s-1.2-0.1-2-0.2
	c-0.7-0.1-1.4-0.3-2-0.4c-0.6-0.2-1.2-0.5-1.8-0.8s-1.1-0.7-1.5-1.2s-0.7-1-1-1.7c-0.2-0.7-0.4-1.5-0.4-2.3v-14.1
	c0-0.8,0.1-1.6,0.4-2.3c0.2-0.7,0.5-1.3,0.9-1.7s0.8-0.9,1.4-1.2c0.6-0.3,1.1-0.6,1.7-0.8s1.2-0.3,2-0.5c0.7-0.1,1.4-0.2,2-0.2
	c0.6,0,1.3,0,2,0c0.8,0,1.5,0,2.1,0c0.6,0,1.3,0.1,2,0.2c0.7,0.1,1.4,0.3,2,0.4c0.6,0.2,1.1,0.4,1.7,0.8c0.6,0.3,1,0.7,1.4,1.2
	c0.4,0.5,0.6,1,0.9,1.7c0.2,0.7,0.3,1.5,0.3,2.3v4.1h-9V137.4z"/>
<path class="st2" d="M205.2,160.5c-0.8,0-1.5,0-2.1,0s-1.3-0.1-2-0.2s-1.4-0.3-1.9-0.4c-0.5-0.2-1.1-0.4-1.7-0.8
	c-0.6-0.3-1-0.7-1.4-1.2c-0.4-0.5-0.6-1-0.9-1.7s-0.3-1.5-0.3-2.4v-14.1c0-0.8,0.1-1.6,0.3-2.3c0.2-0.7,0.5-1.3,0.9-1.7
	s0.8-0.9,1.4-1.2c0.6-0.3,1.1-0.6,1.7-0.8s1.2-0.3,1.9-0.5c0.7-0.1,1.4-0.2,2-0.2s1.3,0,2,0c0.7,0,1.3,0,1.9,0c0.6,0,1.2,0.1,2,0.2
	c0.7,0.1,1.4,0.3,2,0.4c0.6,0.2,1.2,0.5,1.7,0.8c0.6,0.3,1.1,0.7,1.5,1.2c0.4,0.5,0.7,1,1,1.7c0.2,0.7,0.4,1.5,0.4,2.3v14.1
	c0,0.9-0.1,1.7-0.3,2.3c-0.2,0.7-0.5,1.3-0.9,1.7s-0.8,0.9-1.4,1.2s-1.1,0.6-1.7,0.8c-0.6,0.2-1.2,0.3-2,0.4c-0.8,0.1-1.4,0.2-2,0.2
	C206.6,160.4,205.9,160.5,205.2,160.5z M203.9,155.9h2.6v-18.6h-2.6V155.9z"/>
<path class="st2" d="M230.9,159.8l-6-11.8v11.8h-6.7v-26.4h7.7l6.4,12.6v-12.6h6.6v26.4H230.9z"/>
<path class="st2" d="M259.9,133.4v5.4h-5.3v20.9h-9v-20.9h-5.3v-5.4H259.9z"/>
<path class="st2" d="M276.4,146.7L276.4,146.7c2,0.4,3.4,1,4.3,2c0.9,1,1.3,2.3,1.3,3.9v7.2h-9v-10.7h-2.6v10.7h-9v-26.4H275
	c1.1,0,2.1,0.1,2.9,0.3c0.8,0.2,1.5,0.6,2.1,1.1c0.6,0.5,1,1.2,1.3,2.1c0.3,0.9,0.4,1.9,0.4,3.2c0,0.8,0,1.5-0.1,2.1
	s-0.3,1.2-0.5,1.7c-0.2,0.5-0.5,1-0.9,1.4c-0.4,0.4-0.9,0.7-1.5,0.9S277.3,146.6,276.4,146.7z M270.4,145.2h2.6v-7.9h-2.6V145.2z"/>
<path class="st2" d="M292.8,153.8l-0.8,6h-8.7l4.3-26.4h13.5l4.4,26.4h-8.7l-0.8-6H292.8z M294.5,138.6h-0.3l-1.1,11.7h2.6
	L294.5,138.6z"/>
<path class="st2" d="M318.7,137.4h-2.6V156h2.6v-6.3h9v4c0,0.9-0.1,1.6-0.3,2.3c-0.2,0.7-0.5,1.3-0.9,1.7s-0.8,0.9-1.4,1.2
	c-0.6,0.3-1.1,0.6-1.7,0.8c-0.6,0.2-1.2,0.3-1.9,0.4c-0.7,0.1-1.4,0.2-2,0.2c-0.6,0-1.3,0-2,0c-0.7,0-1.3,0-1.9,0s-1.2-0.1-2-0.2
	c-0.7-0.1-1.4-0.3-2-0.4c-0.6-0.2-1.2-0.5-1.8-0.8s-1.1-0.7-1.5-1.2s-0.7-1-1-1.7c-0.2-0.7-0.4-1.5-0.4-2.3v-14.1
	c0-0.8,0.1-1.6,0.4-2.3c0.2-0.7,0.5-1.3,0.9-1.7s0.8-0.9,1.4-1.2c0.6-0.3,1.1-0.6,1.7-0.8s1.2-0.3,2-0.5c0.7-0.1,1.4-0.2,2-0.2
	c0.6,0,1.3,0,2,0c0.8,0,1.5,0,2.1,0c0.6,0,1.3,0.1,2,0.2c0.7,0.1,1.4,0.3,2,0.4c0.6,0.2,1.1,0.4,1.7,0.8c0.6,0.3,1,0.7,1.4,1.2
	c0.4,0.5,0.6,1,0.9,1.7c0.2,0.7,0.3,1.5,0.3,2.3v4.1h-9V137.4z"/>
<path class="st2" d="M348.2,133.4v5.4h-5.3v20.9h-9v-20.9h-5.3v-5.4H348.2z"/>
<path class="st2" d="M359.4,160.5c-0.8,0-1.5,0-2.1,0s-1.3-0.1-2-0.2s-1.4-0.3-1.9-0.4c-0.5-0.2-1.1-0.4-1.7-0.8
	c-0.6-0.3-1-0.7-1.4-1.2c-0.4-0.5-0.6-1-0.9-1.7s-0.3-1.5-0.3-2.4v-14.1c0-0.8,0.1-1.6,0.3-2.3c0.2-0.7,0.5-1.3,0.9-1.7
	s0.8-0.9,1.4-1.2c0.6-0.3,1.1-0.6,1.7-0.8s1.2-0.3,1.9-0.5c0.7-0.1,1.4-0.2,2-0.2s1.3,0,2,0c0.7,0,1.3,0,1.9,0c0.6,0,1.2,0.1,2,0.2
	c0.7,0.1,1.4,0.3,2,0.4c0.6,0.2,1.2,0.5,1.7,0.8c0.6,0.3,1.1,0.7,1.5,1.2c0.4,0.5,0.7,1,1,1.7c0.2,0.7,0.4,1.5,0.4,2.3v14.1
	c0,0.9-0.1,1.7-0.3,2.3c-0.2,0.7-0.5,1.3-0.9,1.7s-0.8,0.9-1.4,1.2s-1.1,0.6-1.7,0.8c-0.6,0.2-1.2,0.3-2,0.4c-0.8,0.1-1.4,0.2-2,0.2
	C360.8,160.4,360.1,160.5,359.4,160.5z M358.2,155.9h2.6v-18.6h-2.6V155.9z"/>
<path class="st2" d="M387.4,146.7L387.4,146.7c2,0.4,3.4,1,4.3,2c0.9,1,1.3,2.3,1.3,3.9v7.2h-9v-10.7h-2.6v10.7h-9v-26.4H386
	c1.1,0,2.1,0.1,2.9,0.3c0.8,0.2,1.5,0.6,2.1,1.1c0.6,0.5,1,1.2,1.3,2.1c0.3,0.9,0.4,1.9,0.4,3.2c0,0.8,0,1.5-0.1,2.1
	s-0.3,1.2-0.5,1.7c-0.2,0.5-0.5,1-0.9,1.4c-0.4,0.4-0.9,0.7-1.5,0.9S388.2,146.6,387.4,146.7z M381.4,145.2h2.6v-7.9h-2.6V145.2z"/>
<path class="st2" d="M403.2,141.2L403.2,141.2c0,0.1,0.1,0.2,0.1,0.2c0,0.1,0.1,0.1,0.1,0.2c0.1,0,0.1,0.1,0.2,0.1s0.1,0.1,0.2,0.1
	s0.2,0.1,0.2,0.1c0.1,0,0.2,0,0.3,0.1c0.1,0,0.2,0,0.3,0.1c0.1,0,0.1,0,0.3,0c0.1,0,0.2,0,0.2,0c2.2,0.4,3.8,0.8,4.8,1.2
	c2.2,0.8,3.6,2.2,4.4,4c0.4,1,0.6,2.1,0.6,3.5c0,1.9-0.2,3.5-0.6,4.7s-1,2.2-1.8,2.9s-1.9,1.2-3.1,1.5s-2.8,0.4-4.6,0.4
	c-0.7,0-1.3,0-1.8,0c-0.5,0-1.1-0.1-1.8-0.2s-1.3-0.2-1.8-0.4c-0.5-0.2-1.1-0.4-1.6-0.7c-0.6-0.3-1-0.7-1.4-1.1
	c-0.4-0.4-0.7-1-1-1.6c-0.3-0.7-0.4-1.4-0.5-2.2c-0.1-0.7-0.1-1.5-0.1-2.4h8.5v4.2h2.6v-4.1c0-0.2,0-0.4-0.1-0.6s-0.3-0.3-0.5-0.4
	s-0.4-0.2-0.5-0.3c-0.1-0.1-0.3-0.1-0.6-0.2c-0.3-0.1-0.8-0.3-1.3-0.4c-0.5-0.2-1-0.3-1.3-0.4c-0.4-0.1-0.8-0.3-1.3-0.5
	c-0.5-0.2-0.9-0.4-1.3-0.5c-0.3-0.2-0.7-0.4-1.1-0.6c-0.4-0.3-0.8-0.5-1-0.8c-0.3-0.3-0.6-0.6-0.9-1c-0.3-0.4-0.5-0.8-0.7-1.2
	c-0.2-0.4-0.3-0.9-0.4-1.5c-0.1-0.6-0.2-1.2-0.2-1.8c0-1,0.1-1.9,0.3-2.8c0.2-0.8,0.4-1.5,0.7-2.1c0.3-0.6,0.7-1.1,1.1-1.6
	s1-0.8,1.5-1.1s1.1-0.5,1.8-0.7c0.7-0.2,1.4-0.3,2-0.4c0.7-0.1,1.4-0.1,2.3-0.1c0.9,0,1.6,0,2.3,0.1c0.7,0,1.4,0.1,2,0.3
	c0.7,0.1,1.3,0.3,1.8,0.6c0.5,0.2,1,0.5,1.4,0.9c0.4,0.4,0.8,0.8,1.1,1.3s0.5,1.1,0.6,1.9c0.2,0.7,0.2,1.5,0.2,2.5h-8v-2.9h-2.6
	V141.2z"/>
<line class="st1" x1="106.9" y1="121" x2="8" y2="121"/>
<g>
	<path class="st3" d="M91.9,88.6l-2.3-0.2c-0.4,0-0.8-0.2-1.1-0.4c-0.4-0.2-0.7-0.6-1.1-1.1c-0.3-0.5-0.6-1.2-0.8-2.1
		c-0.2-0.9-0.3-1.9-0.3-3.1c0-1.1,0.2-2.1,0.5-3.1c0.3-0.9,0.7-1.7,1.2-2.3c0.5-0.6,1.1-1.1,1.9-1.6c0.8-0.5,1.6-0.8,2.4-1
		c0.8-0.2,1.7-0.4,2.8-0.6c1.1-0.2,2.1-0.2,3-0.3c0.9,0,1.9-0.1,3.1-0.1c4.4,0,7.6,0.6,9.8,1.9c2.2,1.3,3.2,3.3,3.2,6.2
		c0,0.4,0,0.8-0.1,1.1h-11.2v-4.3h-4.2v9.5h4.3v-2.8h11.2v2.8h3.1v4h-3.1v4.6c0,1.5-0.1,2.9-0.2,4c-0.2,1.1-0.5,2.1-0.9,3
		s-1,1.6-1.6,2.1c-0.7,0.5-1.5,1-2.6,1.3c-1.1,0.4-2.3,0.6-3.6,0.7c-1.4,0.1-3,0.2-4.9,0.2c-1.3,0-2.4,0-3.4-0.1s-2-0.2-3-0.3
		c-1-0.2-1.9-0.4-2.6-0.7s-1.4-0.7-2.1-1.2s-1.2-1.1-1.6-1.8c-0.4-0.7-0.7-1.6-1-2.6c-0.2-1-0.3-2.1-0.3-3.4c0-0.6,0.1-1.3,0.2-2.1
		s0.3-1.5,0.5-2.3c0.2-0.8,0.6-1.4,1-2c0.5-0.5,1-0.8,1.6-0.9l2.3-0.3V88.6z M102.9,101.7V91.2h-4.3v10.5H102.9z"/>
</g>
<path class="st3" d="M197,85.9h-23.1V40.5h6.2v39.7H197V85.9z"/>
<path class="st3" d="M226.8,85.9H222l-1-4.8c-0.6,2.1-1.7,3.5-3.3,4.2c-1.6,0.7-3.9,1.1-7,1.1c-2,0-3.7-0.2-5-0.6
	c-1.3-0.4-2.3-1.1-3.1-2c-0.8-0.9-1.3-2.1-1.6-3.4c-0.3-1.3-0.4-3.1-0.4-5.2c0-1,0.2-1.8,0.5-2.6c0.3-0.8,0.8-1.4,1.4-1.9
	s1.4-1,2.3-1.4s2-0.7,3-0.9c1-0.2,2.3-0.4,3.8-0.5c1.5-0.1,2.9-0.2,4.3-0.3c1.4,0,3-0.1,4.9-0.1v-9c0-1-0.5-1.8-1.5-2.1
	c-1-0.4-2.7-0.6-5.2-0.6c-1.7,0-3.1,0-3.9,0.1c-0.9,0.1-1.5,0.3-2,0.7c-0.5,0.4-0.7,0.8-0.8,1.2c-0.1,0.4-0.1,1.1-0.1,2.2
	c0,0.4,0,0.7,0,0.9l-4.7-0.2c0-0.3-0.1-0.8-0.1-1.4c0-1.4,0.2-2.5,0.6-3.5c0.4-0.9,0.9-1.7,1.5-2.2c0.6-0.5,1.5-1,2.6-1.3
	c1.1-0.3,2.2-0.5,3.3-0.6c1.1-0.1,2.4-0.1,4-0.1c2.4,0,4.4,0.2,5.9,0.6c1.5,0.4,2.8,1.1,3.7,2s1.6,2.2,2,3.7
	c0.4,1.5,0.6,3.5,0.6,5.9V85.9z M220.8,76.3v-5.2c-4,0-7.1,0.2-9.2,0.5c-2.2,0.3-3.6,0.7-4.3,1.3c-0.7,0.5-1.1,1.3-1.1,2.3
	c0,0,0,0.1,0,0.2c0,3.1,0.3,5,0.8,5.8c0.5,0.8,2.1,1.1,4.7,1.1c2.2,0,4-0.3,5.4-0.8c1.4-0.5,2.3-1.2,2.9-2
	C220.4,78.5,220.7,77.5,220.8,76.3z"/>
<path class="st3" d="M260.7,85.9h-5.5l-0.5-4.3c-0.5,1.6-1.7,2.8-3.5,3.6c-1.8,0.8-3.9,1.2-6.5,1.2c-1.7,0-3.2-0.2-4.4-0.5
	c-1.2-0.3-2.2-0.8-3-1.5c-0.8-0.7-1.4-1.6-1.9-2.8c-0.4-1.2-0.7-2.5-0.9-4c-0.2-1.5-0.3-3.3-0.3-5.5V52.5h6v19.4c0,0.4,0,1.1,0,1.8
	c0,0.8,0,1.3,0,1.6c0,1.1,0,1.9,0.1,2.5c0,0.6,0.1,1.2,0.3,1.8c0.2,0.6,0.4,1,0.7,1.3c0.3,0.3,0.7,0.5,1.3,0.7
	c0.6,0.2,1.2,0.4,2,0.4c0.7,0.1,1.7,0.1,2.8,0.1c1.3,0,2.4-0.1,3.3-0.3c0.9-0.2,1.6-0.4,2.2-0.7c0.5-0.3,0.9-0.7,1.2-1.2
	c0.3-0.5,0.5-1,0.5-1.5c0.1-0.5,0.1-1.1,0.1-1.8c0-0.2,0-0.6,0-1.2c0-0.5,0-1,0-1.2V52.5h6.1V85.9z"/>
<path class="st3" d="M294.7,85.9h-6V65.7c0-1.3,0-2.3,0-3.1c0-0.8-0.1-1.6-0.1-2.4c-0.1-0.8-0.1-1.4-0.2-1.8
	c-0.1-0.4-0.2-0.8-0.4-1.2c-0.2-0.4-0.4-0.7-0.7-0.8c-0.2-0.1-0.5-0.3-1-0.4c-0.4-0.1-0.9-0.2-1.3-0.2c-0.4,0-1,0-1.7,0
	c-1.5,0-2.9,0.1-3.9,0.3c-1.1,0.2-2,0.4-2.7,0.7c-0.7,0.3-1.2,0.7-1.6,1.3s-0.6,1.1-0.8,1.8c-0.1,0.6-0.2,1.4-0.2,2.4
	c0,0.5,0,1.4,0.1,2.8c0.1,1.3,0.1,2.4,0.1,3.2v17.8h-6V52.5h5.5l0.6,3.7c0.5-1.7,1.7-2.9,3.5-3.6c1.8-0.7,4-1.1,6.5-1.1
	c1.2,0,2.2,0.1,3.1,0.2c0.9,0.1,1.7,0.4,2.4,0.7c0.7,0.3,1.3,0.7,1.8,1.1c0.5,0.4,1,1,1.3,1.7c0.4,0.7,0.6,1.4,0.9,2.1
	c0.2,0.7,0.4,1.6,0.5,2.7c0.1,1.1,0.2,2.2,0.2,3.3c0,1.1,0.1,2.4,0.1,3.9V85.9z"/>
<path class="st3" d="M328.7,85.9h-5.5l-0.6-4.2c-1.2,3.1-4.5,4.7-9.7,4.7c-1.4,0-2.7-0.1-3.8-0.3c-1.1-0.2-2.1-0.5-2.9-0.9
	c-0.8-0.4-1.5-0.9-2.1-1.4s-1-1.2-1.4-2.1c-0.4-0.9-0.7-1.7-0.9-2.5c-0.2-0.7-0.4-1.8-0.5-3.1c-0.1-1.3-0.2-2.5-0.2-3.5
	c0-1,0-2.3,0-4c0-1.6,0-3.1,0.1-4.3c0.1-1.2,0.2-2.4,0.3-3.6c0.2-1.2,0.4-2.2,0.6-3c0.3-0.8,0.6-1.6,1-2.3c0.4-0.8,0.9-1.4,1.5-1.8
	c0.6-0.5,1.3-0.9,2.1-1.2c0.8-0.4,1.8-0.6,2.9-0.7c1.1-0.1,2.3-0.2,3.7-0.2c2.6,0,4.7,0.4,6.1,1.1c1.5,0.7,2.5,1.8,3.1,3.3V39.2h6
	V85.9z M322.7,78.1V60.4c0-1.8-0.5-3-1.6-3.6c-1.1-0.7-3.2-1-6.2-1c-2.4,0-4.1,0.2-5.2,0.5c-0.9,0.3-1.6,1.1-1.9,2.5
	c-0.3,1.4-0.5,3.3-0.5,5.6c0,3.4,0.1,8.2,0.2,14.4c0.1,1.3,0.6,2.2,1.6,2.7c1,0.5,2.9,0.7,5.8,0.7c2.8,0,4.8-0.3,6-0.9
	C321.9,80.8,322.6,79.7,322.7,78.1z"/>
<path class="st3" d="M362.1,68.7c-2.4,0.2-3.9,0.4-4.5,0.4h-16.6c0,2.9,0.1,6.2,0.2,9.7c0.1,1.4,0.7,2.3,1.8,2.7s3.1,0.7,6.2,0.7
	c1.2,0,2.2,0,3-0.1c0.8-0.1,1.5-0.3,2-0.5c0.5-0.2,0.9-0.5,1.2-0.7c0.3-0.2,0.5-0.5,0.7-1c0.1-0.5,0.2-0.8,0.3-1.2
	c0-0.3,0.1-0.8,0.1-1.4c0-0.6,0.1-1.2,0.2-1.6l4.7,0.9c0,1.4-0.1,2.6-0.3,3.6c-0.2,1-0.4,1.9-0.8,2.6c-0.4,0.8-0.8,1.3-1.4,1.8
	c-0.5,0.4-1.2,0.8-2.1,1.1c-0.9,0.3-1.9,0.5-3,0.6s-2.4,0.1-4,0.1c-2,0-3.8-0.1-5.3-0.4c-1.5-0.2-2.8-0.5-3.9-0.9
	c-1.1-0.3-1.9-0.9-2.6-1.7c-0.7-0.8-1.2-1.5-1.6-2.2c-0.4-0.7-0.7-1.8-0.9-3.1c-0.2-1.4-0.3-2.6-0.4-3.8c-0.1-1.1-0.1-2.7-0.1-4.7
	c0-2.8,0-5,0.1-6.5c0.1-1.6,0.3-3.1,0.6-4.7s0.8-2.7,1.3-3.4c0.5-0.7,1.4-1.4,2.4-2c1.1-0.6,2.3-1,3.8-1.2s3.3-0.3,5.6-0.3
	c1.6,0,2.9,0,4.1,0.1c1.1,0.1,2.2,0.3,3.1,0.6c1,0.3,1.7,0.6,2.4,1c0.6,0.4,1.2,0.9,1.6,1.6c0.5,0.7,0.8,1.4,1.1,2.2s0.5,1.8,0.6,3
	c0.2,1.3,0.3,2.5,0.3,3.8C362,65.2,362.1,66.8,362.1,68.7z M341,66h15.1c0-2.6-0.1-5-0.3-7.1c-0.1-1.2-0.6-2.1-1.6-2.5
	s-2.8-0.6-5.4-0.6c-2.9,0-4.7,0.2-5.5,0.5c-0.3,0.1-0.6,0.3-0.9,0.5c-0.3,0.3-0.5,0.6-0.6,1.1c-0.2,0.5-0.3,0.9-0.4,1.3
	c-0.1,0.4-0.2,1-0.2,1.7c-0.1,0.7-0.1,1.3-0.1,1.7c0,0.4,0,1,0,1.8C341,65.1,341,65.7,341,66z"/>
<path class="st3" d="M383.3,51.7l-0.2,5.1c-0.8-0.1-1.5-0.2-2.2-0.2c-1.4,0-2.6,0.1-3.5,0.4c-0.9,0.3-1.6,0.8-2,1.5
	c-0.5,0.7-0.8,1.5-0.9,2.4s-0.2,2.1-0.2,3.5c0,0.8,0,2.1,0.1,3.7c0.1,1.6,0.1,2.8,0.1,3.4v14.3h-6V52.5h5.5l0.6,3.7
	c0.6-1.5,1.6-2.6,2.9-3.4c1.3-0.8,2.8-1.2,4.6-1.2C382.4,51.6,382.9,51.7,383.3,51.7z"/>
</svg>
